<?xml version="1.0" encoding="utf-8"?>
<!-- Generator: Adobe Illustrator 27.5.0, SVG Export Plug-In . SVG Version: 6.00 Build 0)  -->
<svg version="1.1" xmlns="http://www.w3.org/2000/svg" xmlns:xlink="http://www.w3.org/1999/xlink" x="0px" y="0px"
	 viewBox="0 0 1122 1122" style="enable-background:new 0 0 1122 1122;" xml:space="preserve">
<g id="Background">
	<rect style="fill:#FFFFFF;" width="1122" height="1122"/>
</g>
<g id="Object">
	<g>
		<g>
			<g>
				<path style="fill:#C1D2DB;" d="M269.4,472.622c90.265-9.333,199.501,10.165,290.589,1.984
					c109.344-11.305,227.296-7.489,336.171-3.966c-0.24,7.409-9.674,18.232-0.719,22.237c35.929,12.287,35.449,27.118,34.969,41.942
					c-0.24,7.413-27.214-0.88-18.389,6.827c-27.214-0.88-72.726,1.358-45.722,9.645c8.835,7.711,45.363,1.467,54.068,12.877
					c8.725,11.419-9.784,21.948-1.079,33.35c9.084,0.294,27.234,0.881,36.308,1.174c8.816,7.718-9.794,21.956-0.72,22.249
					c26.976,8.294,63.395,5.758,99.663,6.931c-0.24,7.414,8.615,15.118-9.654,18.241c-317.802-2.864-644.911,1.395-962.104-20.007
					c-36.169-4.873-8.465-18.815,19.108-29.055c-9.185,3.417-8.825-7.707-18.03-4.29c0.36-11.12,19.109-29.06,55.527-31.597
					c-9.075-0.294-18.139-0.587-27.224-0.881c-8.954-3.996,0.36-11.116,0.6-18.526c9.085,0.294,18.149,0.587,18.269-3.128
					c0.12-3.699,0.36-11.116,0.479-14.819c-9.065-0.293-27.223-0.881-36.288-1.174c9.065,0.293,18.139,0.587,18.259-3.116
					c0.12-3.707,0.36-11.121,0.48-14.835c18.269-3.112,45.243,5.182,63.522,2.055l0.36-11.108
					c-18.039-4.298-45.373-1.468-63.522-2.055c9.204-3.417,9.325-7.12,9.565-14.538c27.333-2.826,54.197,9.179,81.763-1.065
					c-9.066-0.293-18.141-0.587-27.206-0.88C197.182,459.15,242.056,475.448,269.4,472.622z"/>
			</g>
		</g>
		<g>
			<g>
				<path style="fill:#FFFFFF;" d="M233.87,511.701h32.482c8.187,0,14.636,1.994,19.341,5.97c4.706,3.98,7.058,9.029,7.058,15.15
					c0,8.953-5.204,14.959-15.612,18.017c5.28,0.766,9.507,3.043,12.685,6.831c3.175,3.784,4.762,8.167,4.762,13.14
					c0,6.273-2.373,11.346-7.114,15.206c-4.746,3.864-11.174,5.798-19.282,5.798h-34.32V511.701z M250.053,524.099v20.773h14.576
					c3.597,0,6.448-0.897,8.554-2.7c2.102-1.794,3.155-4.339,3.155-7.629c0-3.29-1.053-5.854-3.155-7.693
					c-2.105-1.834-4.957-2.752-8.554-2.752H250.053z M250.053,579.419h16.299c3.597,0,6.484-0.977,8.666-2.927
					c2.181-1.954,3.27-4.65,3.27-8.091c0-3.445-1.109-6.161-3.326-8.151c-2.221-1.986-5.129-2.983-8.725-2.983h-16.183V579.419z"/>
			</g>
			<g>
				<path style="fill:#FFFFFF;" d="M396.964,591.814l-5.165-15.034h-31.221l-5.164,15.034h-17.1l28.35-80.34h19.166l28.234,80.34
					H396.964z M364.825,564.381h22.839l-11.477-33.399L364.825,564.381z"/>
			</g>
			<g>
				<path style="fill:#FFFFFF;" d="M477.412,591.814h-16.183v-80.113h16.183v35.812l28.924-35.812h21.116l-34.775,40.17
					l34.775,39.943h-21l-29.04-35.58V591.814z"/>
			</g>
			<g>
				<path style="fill:#FFFFFF;" d="M620.765,511.474v12.394h-30.073v21.005h26.627v12.394h-26.627v22.153h30.073v12.395h-46.255
					v-80.34H620.765z"/>
			</g>
			<g>
				<path style="fill:#FFFFFF;" d="M689.393,559.906v31.907H673.21v-80.113h29.498c9.256,0,16.39,2.317,21.404,6.947
					c5.013,4.63,7.517,10.349,7.517,17.156c0,5.053-1.531,9.758-4.59,14.117c-3.059,4.363-7.88,7.346-14.461,8.953l20.43,32.94
					h-19.166l-19.17-31.907H689.393z M689.393,524.099v23.413h13.315c4.056,0,7.155-1.053,9.296-3.159
					c2.141-2.101,3.214-4.953,3.214-8.55c0-3.593-1.073-6.444-3.214-8.55c-2.141-2.101-5.24-3.154-9.296-3.154H689.393z"/>
			</g>
			<g>
				<path style="fill:#FFFFFF;" d="M820.005,591.814h-16.183v-27.544l-27.086-52.569h18.133l17.1,37.762l16.984-37.762h18.137
					l-27.086,52.569V591.814z"/>
			</g>
		</g>
		<g>
			<g>
				<path d="M402.607,754.66c-0.698,0-1.268,0.187-1.715,0.558c-0.447,0.371-0.67,0.902-0.67,1.599c0,0.698,0.207,1.26,0.622,1.683
					c0.415,0.427,0.953,0.75,1.615,0.981c0.666,0.227,1.408,0.447,2.225,0.654c0.814,0.208,1.627,0.455,2.433,0.75
					c0.805,0.295,1.539,0.658,2.205,1.093c0.662,0.439,1.201,1.053,1.615,1.847c0.415,0.798,0.622,1.751,0.622,2.859
					c0,1.938-0.79,3.601-2.369,4.981c-1.579,1.384-3.657,2.078-6.241,2.078c-2.58,0-4.658-0.622-6.237-1.863
					c-1.579-1.244-2.368-3.007-2.368-5.292h5.946c0.151,1.827,1.089,2.744,2.807,2.744c0.806,0,1.439-0.215,1.894-0.638
					c0.459-0.427,0.686-0.965,0.686-1.619c0-0.65-0.207-1.185-0.618-1.599c-0.415-0.415-0.953-0.742-1.619-0.981
					c-0.662-0.239-1.404-0.462-2.221-0.67c-0.817-0.207-1.627-0.463-2.433-0.766c-0.805-0.307-1.543-0.67-2.205-1.097
					c-0.666-0.423-1.204-1.033-1.619-1.827c-0.411-0.797-0.618-1.738-0.618-2.827c0-2.134,0.793-3.844,2.384-5.129
					c1.587-1.284,3.621-1.926,6.094-1.926c2.469,0,4.467,0.558,5.994,1.679c1.523,1.125,2.317,2.891,2.385,5.312h-6.078
					c-0.088-0.829-0.355-1.467-0.802-1.914C403.875,754.887,403.305,754.66,402.607,754.66z"/>
			</g>
			<g>
				<path d="M426.195,773.511v-22.934h5.583v22.934H426.195z"/>
			</g>
			<g>
				<path d="M461.835,750.513h5.587v22.998h-5.587l-9.344-14.472v14.472h-5.583v-22.998h5.583l9.344,14.472V750.513z"/>
			</g>
			<g>
				<path d="M484.622,770.392c-2.273-2.209-3.414-5.017-3.414-8.415c0-3.393,1.141-6.201,3.414-8.41
					c2.277-2.21,5.06-3.314,8.346-3.314c2.548,0,4.813,0.674,6.796,2.022c1.982,1.352,3.366,3.226,4.151,5.619h-6.664
					c-0.873-1.675-2.269-2.512-4.183-2.512c-1.918,0-3.425,0.598-4.526,1.794c-1.096,1.201-1.647,2.8-1.647,4.802
					c0,2.006,0.551,3.605,1.647,4.806c1.101,1.196,2.608,1.794,4.526,1.794c1.914,0,3.31-0.837,4.183-2.516h6.664
					c-0.786,2.397-2.17,4.271-4.151,5.619c-1.982,1.352-4.247,2.026-6.796,2.026C489.682,773.706,486.899,772.602,484.622,770.392z"
					/>
			</g>
			<g>
				<path d="M531.615,750.513v4.247h-8.299v4.933h7.318v4.247h-7.318v5.324h8.299v4.247h-13.882v-22.998H531.615z"/>
			</g>
			<g>
				<path d="M565.493,773.184v-4.148c0.59-0.522,1.416-1.24,2.484-2.157c1.065-0.913,1.894-1.627,2.48-2.137
					c0.59-0.514,1.276-1.156,2.062-1.93c0.782-0.77,1.372-1.432,1.763-1.974c1.025-1.416,1.535-2.648,1.535-3.693
					c0-1.85-0.818-2.776-2.448-2.776c-0.786,0-1.408,0.275-1.863,0.833c-0.459,0.555-0.686,1.356-0.686,2.401h-5.392
					c0-2.616,0.758-4.59,2.269-5.93c1.516-1.34,3.501-2.01,5.962-2.01c2.46,0,4.379,0.702,5.751,2.106
					c1.372,1.408,2.058,3.099,2.058,5.081c0,1.503-0.327,2.823-0.981,3.956c-0.391,0.65-0.73,1.208-1.013,1.663
					c-0.283,0.459-0.75,1.025-1.404,1.699c-0.654,0.678-1.133,1.168-1.436,1.471c-0.307,0.307-0.865,0.829-1.683,1.567
					c-0.818,0.742-1.336,1.22-1.551,1.44h8.494v4.539H565.493z"/>
			</g>
			<g>
				<path d="M599.454,750.708c1.208-0.586,2.64-0.882,4.295-0.882c1.655,0,3.086,0.295,4.299,0.882
					c1.208,0.59,2.161,1.428,2.855,2.516c0.698,1.089,1.208,2.325,1.535,3.709c0.327,1.383,0.49,2.943,0.49,4.685
					c0,1.743-0.163,3.306-0.49,4.69c-0.327,1.384-0.838,2.62-1.535,3.709c-0.694,1.089-1.647,1.926-2.855,2.512
					c-1.212,0.59-2.644,0.885-4.299,0.885c-1.655,0-3.087-0.295-4.295-0.885c-1.208-0.586-2.161-1.424-2.859-2.512
					c-0.698-1.089-1.208-2.325-1.535-3.709c-0.327-1.384-0.491-2.947-0.491-4.69c0-1.742,0.163-3.302,0.491-4.685
					c0.327-1.384,0.837-2.62,1.535-3.709C597.292,752.136,598.245,751.298,599.454,750.708z M605.399,755.43
					c-0.466-0.251-1.017-0.375-1.651-0.375c-0.63,0-1.181,0.124-1.647,0.375c-0.47,0.251-0.829,0.562-1.081,0.929
					c-0.251,0.371-0.451,0.862-0.602,1.472c-0.156,0.61-0.251,1.2-0.295,1.762c-0.044,0.571-0.064,1.244-0.064,2.026
					c0,0.786,0.02,1.46,0.064,2.026c0.044,0.566,0.139,1.156,0.295,1.767c0.151,0.611,0.351,1.097,0.602,1.468
					c0.251,0.371,0.61,0.682,1.081,0.933c0.467,0.252,1.017,0.375,1.647,0.375c0.634,0,1.184-0.123,1.651-0.375
					c0.467-0.251,0.83-0.562,1.077-0.933c0.251-0.371,0.455-0.857,0.606-1.468c0.151-0.61,0.251-1.2,0.295-1.767
					c0.044-0.566,0.064-1.24,0.064-2.026c0-0.782-0.02-1.455-0.064-2.026c-0.044-0.562-0.143-1.152-0.295-1.762
					c-0.152-0.61-0.355-1.101-0.606-1.472C606.229,755.992,605.866,755.681,605.399,755.43z"/>
			</g>
			<g>
				<path d="M629.491,773.511v-18.001h-3.952v-5.192h9.734v23.193H629.491z"/>
			</g>
			<g>
				<path d="M650.922,755.414c0-1.786,0.722-3.322,2.157-4.606c1.44-1.284,3.474-1.93,6.109-1.93c2.636,0,4.666,0.65,6.094,1.946
					c1.424,1.296,2.137,2.835,2.137,4.622c0,2.265-1.013,3.964-3.039,5.097c2.421,1.176,3.629,3.146,3.629,5.914
					c0,2.285-0.842,4.111-2.516,5.471c-1.679,1.36-3.773,2.042-6.289,2.042c-2.516,0-4.618-0.686-6.305-2.058
					c-1.687-1.372-2.532-3.19-2.532-5.455c0-2.767,1.208-4.738,3.625-5.914C651.947,759.409,650.922,757.699,650.922,755.414z
					 M662.391,766.129c0-0.937-0.279-1.699-0.834-2.289c-0.554-0.586-1.352-0.881-2.385-0.881c-1.037,0-1.862,0.283-2.484,0.849
					c-0.618,0.566-0.929,1.336-0.929,2.305c0,0.969,0.299,1.759,0.897,2.369c0.598,0.61,1.428,0.913,2.484,0.913
					c1.057,0,1.863-0.311,2.417-0.929C662.112,767.844,662.391,767.066,662.391,766.129z M661.996,756.231
					c0-0.849-0.255-1.527-0.766-2.026c-0.51-0.502-1.18-0.754-2.01-0.754c-0.825,0-1.507,0.252-2.042,0.754
					c-0.534,0.499-0.802,1.181-0.802,2.042c0,0.861,0.275,1.547,0.818,2.058c0.546,0.51,1.208,0.766,1.994,0.766
					s1.448-0.259,1.994-0.782C661.725,757.767,661.996,757.081,661.996,756.231z"/>
			</g>
		</g>
		<g>
			<g>
				<path d="M335.713,393.601l4.949-2.586l10.62,20.327l-4.953,2.586l-4.403-8.427l-7.844,4.1l4.398,8.427l-4.949,2.586
					l-10.62-20.329l4.953-2.586l4.251,8.137l7.844-4.098L335.713,393.601z"/>
			</g>
			<g>
				<path d="M365.212,401.489c-2.955-1.181-5.08-3.34-6.381-6.479c-1.304-3.138-1.324-6.163-0.068-9.078
					c1.252-2.913,3.406-5.003,6.452-6.265c3.051-1.264,6.038-1.306,8.965-0.127c2.931,1.178,5.045,3.336,6.349,6.474
					c1.3,3.139,1.328,6.167,0.088,9.089c-1.24,2.919-3.382,5.009-6.421,6.267C371.161,402.63,368.163,402.669,365.212,401.489z
					 M375.592,393.26c0.558-1.527,0.451-3.216-0.315-5.069c-0.77-1.85-1.89-3.119-3.366-3.804c-1.471-0.684-3.059-0.676-4.761,0.03
					c-1.699,0.706-2.828,1.823-3.386,3.35c-0.554,1.527-0.451,3.216,0.315,5.067c0.769,1.853,1.89,3.121,3.366,3.805
					c1.475,0.686,3.063,0.676,4.762-0.03C373.905,395.904,375.034,394.787,375.592,393.26z"/>
			</g>
			<g>
				<path d="M415.519,362.593l6.716,21.927l-5.344,1.635l-3.785-12.368l-1.304,13.928l-3.968,1.215l-8.881-10.811l3.789,12.37
					l-5.344,1.635l-6.712-21.927l6.121-1.874l10.939,13.186l1.651-17.04L415.519,362.593z"/>
			</g>
			<g>
				<path d="M445.257,355.721l0.881,4.153l-8.115,1.729l1.029,4.825l7.159-1.525l0.885,4.155l-7.159,1.523l1.109,5.208l8.115-1.729
					l0.885,4.154l-13.579,2.893l-4.793-22.494L445.257,355.721z"/>
			</g>
			<g>
				<path d="M487.361,349.602l2.811,22.761l-5.543,0.684l-1.587-12.839l-3.697,13.493l-4.119,0.508l-6.871-12.187l1.587,12.839
					l-5.543,0.684l-2.812-22.759l6.353-0.786l8.49,14.883l4.578-16.496L487.361,349.602z"/>
			</g>
			<g>
				<path d="M519.321,370.957l-1.396-3.813l-8.227,0.257l-1.152,3.892l-5.942,0.185l7.246-23.235l6.791-0.214l8.654,22.739
					L519.321,370.957z M510.97,363.113l5.419-0.169l-2.967-8.079L510.97,363.113z"/>
			</g>
			<g>
				<path d="M547.005,348.475c3.653,0.188,6.6,1.402,8.841,3.643c2.242,2.241,3.274,5.053,3.099,8.435
					c-0.171,3.382-1.487,6.079-3.944,8.089c-2.46,2.012-5.515,2.923-9.172,2.736l-8.056-0.413l1.173-22.905L547.005,348.475z
					 M543.567,367.009l2.48,0.128c2.13,0.109,3.84-0.457,5.124-1.699c1.284-1.244,1.982-2.963,2.098-5.16
					c0.112-2.195-0.407-3.978-1.56-5.346c-1.152-1.368-2.792-2.105-4.925-2.215l-2.477-0.127L543.567,367.009z"/>
			</g>
			<g>
				<path d="M588.371,352.362l-0.546,4.211l-8.231-1.069l-0.634,4.893l7.258,0.941l-0.55,4.214l-7.254-0.943l-0.686,5.28
					l8.227,1.069l-0.546,4.211l-13.77-1.789l2.963-22.807L588.371,352.362z"/>
			</g>
			<g>
				<path d="M621.87,379.085c-1.635-2.718-2.018-5.72-1.152-9.004c0.869-3.284,2.688-5.705,5.451-7.26
					c2.764-1.555,5.739-1.914,8.917-1.073c2.464,0.65,4.483,1.882,6.054,3.695c1.571,1.813,2.429,3.976,2.572,6.493l-6.44-1.703
					c-0.415-1.845-1.547-3.011-3.402-3.501c-1.85-0.489-3.466-0.295-4.833,0.58c-1.368,0.878-2.309,2.285-2.823,4.221
					c-0.51,1.938-0.387,3.627,0.371,5.065c0.754,1.44,2.062,2.405,3.912,2.895c1.854,0.488,3.418,0.034,4.686-1.364l6.444,1.703
					c-1.372,2.115-3.186,3.573-5.448,4.373c-2.261,0.8-4.622,0.871-7.086,0.221C625.913,383.583,623.505,381.805,621.87,379.085z"/>
			</g>
			<g>
				<path d="M666.131,395.986l0.1-4.057l-7.749-2.778l-2.5,3.2l-5.599-2.006l15.262-18.963l6.397,2.291l-0.283,24.331
					L666.131,395.986z M661.238,385.627l5.104,1.828l0.203-8.604L661.238,385.627z"/>
			</g>
			<g>
				<path d="M688.42,405.116l-5.085-2.317l9.515-20.867l5.085,2.319l-4.176,9.154l11.07-6.01l6.66,3.036l-13.351,6.515l3.832,14.35
					l-6.536-2.981l-2.815-12.414L688.42,405.116z"/>
			</g>
			<g>
				<path d="M736.614,403.81l-2.058,3.717l-7.262-4.02l-2.389,4.317l6.405,3.543l-2.058,3.717l-6.401-3.545l-2.58,4.66l7.258,4.018
					l-2.054,3.717l-12.147-6.726l11.138-20.121L736.614,403.81z"/>
			</g>
		</g>
		<g>
			<g>
				<rect x="499.927" y="697.326" style="fill:#232020;" width="71.188" height="8.167"/>
			</g>
		</g>
	</g>
</g>
</svg>
